<?xml version="1.0" encoding="UTF-8"?><svg id="Layer_1" xmlns="http://www.w3.org/2000/svg" viewBox="0 0 429.91 895.3"><defs><style>.cls-1{fill:#fff;}.cls-2{fill:#0b9444;}.cls-3{stroke:#0f0e0e;stroke-linecap:round;stroke-linejoin:round;stroke-width:2px;}.cls-3,.cls-4{fill:none;}.cls-4{stroke:#707070;stroke-miterlimit:4;stroke-width:1px;}</style></defs><g id="Rectangle_130"><rect class="cls-1" x="27.18" y="28.93" width="378.19" height="848.96" transform="translate(-15.74 7.85) rotate(-2.01)"/><rect class="cls-4" x="27.68" y="29.43" width="377.19" height="847.96" transform="translate(-15.74 7.85) rotate(-2.01)"/></g><path id="Path_40" class="cls-2" d="M163.61,473.19c-26.67-18.83-14.67-14.67-39.33-40s-39.33-34.67-34-68-6-66.67,20.67-86,54-20.67,23.33-42,14-17.33,14-17.33l-29.33-14,29.33-6s-25.33-22-41.33-21.33,37.33-14.67,56.67-4.67,22.67,18,22.67,18c0,0-6.67-48-13.33-62.67s37.33,32,39.33,44.67,58-15.33,58-15.33l-33.33,25.33,74-5.33-34.67,13.33,60.67,14-39.33,6,17.33,18h-52l37.33,38h-30s37.33,19.33,40.67,72.67-27.33,176-34.67,193.33-72.67,37.33-83.33,29.33-2.67-71.17-29.33-90Z"/><g id="Layer_2"><path id="Path_39" class="cls-3" d="M31.61,551.86s43.41-87.33,122.74-22,44.53-31.27,41.11-36.23-1.51-6.07-3.21-9.9-7.78-10.71-16.16-17.18-14.51-14.23-26.24-27.48-13.46-20.11-17.7-26.28-10.67-13.84-20.2-26.55-3.68-16.07-2.42-19.85c1.41-4.83,1.68-9.92,.77-14.87-1.02-4.45-.83-13.18-.52-17.21s4.1-5.36,6.26-7.64,2.48-.49,5.89-4.48,3.51-8.48,.86-8.83-4.24,.68-5.63,6.63-.14,4.83,2.81,2.94,5.66-10.12,5.66-10.12c.37-1.9,.59-3.83,.64-5.77,0-2.7,3.5-6.73,3.5-6.73,0,0,1.84,1.14,2.4-1.79,.4-2.57,1.72-4.9,3.71-6.56,2.12-1.97,6.23,.49,8.79,4.64s-.67,8.52,4.56,9.44,6.01-1.14,10.7-3.6,4.06-3.73,7.01-12.41-11.5,.78-19.11,3.39-10.93-5.27-9.56-5.2,3.19-1.75,9.25-5.05,9.77-5.42,8.23-2.36,4.43,5.26,12.89,3.82,7.17-9.72-2.24-7.7-6.23-3.36-4.34-5.44,6.78-6.56,13.22-6.85,9.08,4.65,6.96,1.4-6.36-2.85-12.02-4.36-13.38,2.51-13.38,2.51c0,0,2.09-3.5,4.75-4.94s4.19-2.05,11.32-1.67,16.35,5.19,16.35,5.19c0,0-.76-.92-7.28-8.7s-29.42-13.62-29.42-13.62c0,0,9.69-2.06,22.83,2.08s20.53,16.53,20.53,16.53c0,0-3.52-5.99-7.8-12.56s-12.73-11.63-20.51-13.41-17.84,2.36-17.84,2.36c0,0,3.2-4.55,6.61-5.62s6.46-4.03,20.64,0,24.29,22.21,24.29,22.21c0,0-1.14-4.57-9.46-16.69s-42.22-29.09-42.22-29.09c0,0,9.37,1.11,25.59,8.53,9.77,4.49,18.24,11.4,24.61,20.07,0,0-.66-2.53-7.99-11.9s-14.29-8.42-22.39-18.1-39.36-26.67-39.36-26.67c0,0,4.12,.78,11.18,2.91s26,10.03,37.38,18.33,13.62,16.79,13.62,16.79c.74-2.06,1.59-4.08,2.55-6.04,2.16-4.72,.55-18.53,1.12-25.24s-6.18-28.39-6.18-28.39c0,0,2.53,2.49,7.74,13.82s11.36,36.4,14.34,28.75,12.68-16.98,11.98-15.57,2.99,11.01-6.69,17.75-18.8,22.52-18.8,22.52c0,0,1.66-3.09,8.12-10.84s15.64-12.24,27.29-17.36,37.28-9.03,32.28-7.05-19.4,8.72-33.42,15.63-24.48,19.7-24.48,19.7c0,0,1.72-1.21,12.58-9.67s25.91-8.14,42.02-11.83,34.96,2.13,33.31,1.74-25.26,1.99-40.27,4.43-15.5,7.21-30.9,13.5-20.41,23.93-20.41,23.93c2.65-5.29,6.22-10.08,10.53-14.13,6.82-6.19,8.66-5.71,14.26-8.07s18.45-5.38,31.78-8.9,28.35,2.47,28.35,2.47c0,0-4.83-.03-14.78-.02s-19.96,6.04-39.72,11.38-23.63,13.7-23.63,13.7c0,0,4.58-5.9,14.3-8.1s20.91,1.38,27.78,3.65,17.59,13.24,17.59,13.24c-5.04-3.32-10.37-6.2-15.91-8.6-9.12-3.95-17.69-2.99-31.09-.54s-12.35,13.07-12.35,13.07c0,0,.09-5.96,10.98-8.29s26.69,4.46,26.69,4.46c0,0-1.63-1.01-13.87-1.04s-19.98,12.74-19.98,12.74c0,0,2.72-1.48,3.29-2.33s7.64-5.36,14.57-6.82,16.11-.08,23.69,3.26,5.49,5.43,5.49,5.43c0,0-.24-4.29-16.56-4.8s-22.72,10.05-22.72,10.05c0,0-.67,4.08,3.1-1.19s17.4-6.1,24.58-3.29,11.8,9.49,11.8,9.49c0,0-3.76-2.78-9.85-6.55s-8.88-3.06-12.95-1.33-6.19,4.28-2.68,12.14-3.22,11.49-4.77,8.34-4.08-15.71-12.31-8.66-8.21,6.77-15.03,2.35-10.76-11.3-15.19-10.01-15.94,9.45-12.29,14.49,8.63,12.02,15.32,7.47c7.21-5.03,16.8-5.03,24,.02,8.32,5.5,9.48,10.02,14.94,4.42s6.38-11.4,18.27-2.98,12.73,1.91,20.38-.56,14.3,6.76,16.07,13.97-4.58,13.5-7.21,8.7-5.65-3.77-10.84-5.96-7.1-8.77-4.2-13.89-4.59-12.4-7.91-13.99-12.22-3.68-13.07-8.51,2.54-4.63,7.78-1.81,3.56,3.78,6.37,4.77,2.06-1.16,6.17,.67,8.08,4.59,8.61,8.9,4.77,3.56,4.77,3.56c0,0,3.69-2.4,8.26,3.11s3.62,14.16,4.54,19.18,3.84,3.15,3.84,3.15c0,0,3.41,1.19,2.14,5.68s-6.15,11.94-6.03,13.66,4.12-.36,4.04,3.39,.41,6.73-2.61,10.4-6.56,5.21-8.02,2.75-3.35-19.77-7.42-18.32,.29,4.35,2.26,7.14,3.26,10.06-2.48,15.48-13.99-.68-18.94-8.41,6.6-12.23,13.57-15.21,8.69-2.54,2.37-14.35-12.67-7.4-19.29-1.29-8.2,9.61-13.73,3.64-8.49-12.66-16.56-14.74-18.53,6.69-26.52,8.33-5.31-4.42-9-12.58-7.27-7.21-13.48-3.07-15.08,7.58-11.43,11.79,4.38,9.48,6.09,16.68,6.69,8.57,6.73,4.91,6.79-12.33,17.01-15.51,9.25,.95,16.62,11.95,7.56,10.9,13.59,3.84,15.15-10.38,23.12-5.98,10.05,8.36,7.42,16.08,5.01,18.92,12.94,17.45,8.6-1.73,10.28,4.6-9.22,11.68-18.37,17.15-6.01-5.02-.36-12.65,1.82-12.12-2.68-16.74-7.89-4.1-17.36-1.27-9.68,7.38-11.28,17.64c-1.6,10.26,3.5,6.36,2.43,7.88-1.07,1.52-15.57,8.85-21.41,6.74s-7.89-6-4.63-13.02,6.92-8.07,14.9-6.68,7.83,.85,7.92-.36c.58-4.61,.45-9.27-.37-13.84-1.34-6.62-6.69-11.59-15.8-12.79s-10.42,6.45-18.75,8.39-22.66-12.3-31.1-20.92-4.57-19.84-3.73-16.28,6.88,9.63,2.33,13.94-16.09,14.65-18.88,6.44,12.03-23.22,8.88-17.56-21.05,5.83-21.05,5.83c2.57,.71,4.9,2.12,6.73,4.07,2.55,3.01,1.75,8.68-.44,13.21s-1.45,2.35-3.71,5l.99,1.92c.25,1.45,.31,2.93,.19,4.4-.17,2.73-4.08,3.15-4.08,3.15,.92-.26,1.87,.27,2.13,1.19,.05,.16,.07,.33,.07,.5,.21,1.45,.76,2.82,1.61,4.01,0,0-3.86,7.21-6.57,12.73s-.56,16.38-.56,16.38c-.65-2.97-1.12-5.97-1.42-8.98-.31-3.14,.55-6.29,2.42-8.84,1.56-2.2,4.05-5.99,6.17-9.24,1.1-1.81,2.35-3.53,3.73-5.13,2.74-2.37,5.25-5.01,7.48-7.86,4.12-5.3,13.42-10.27,14.72-9.33s-7.88,8.27-12.66,9.13,5.43-6.38,8.15-7.67,8.24-1.26,9.9,.74,1.97,5.81,.73,10.47-10.22,11.43-12.47,12.89c-1.54,1.1-2.88,2.46-3.95,4.01,0,0-1.75-2.82-.88-1.93s1.06,1.07,1.22,3.91c.16,2.26-.21,4.52-1.07,6.62-.81,2.35-1.36,1.81-1.36,1.81,.65,.78,1.34,3.28,1.77,4.99s-2.26,3.98-1.54,2.97c.5-.78,.89-1.62,1.16-2.5,1.22,.18,2.37,.72,3.28,1.56,1.28,1.31,2.57,3.49,2.01,4.6s-3.59,1.61-4.8,3.02-.95,8.64-.53,11.91,1.04,13.94,1.04,13.94c-.28-1.82-.22-3.68,.17-5.48,.64-3.09-.68-10.41-.84-14.22s1.1-6.05,3.1-7.67c2.19-1.99,4.04-4.34,5.47-6.93,1.46-2.51,6.55-8.12,7.04-9.77s8.97-7.6,10.2-8.73,3.05-2.29,8.47-5.47,8.08-1.99,2.74,2.01-8.83,3.07-3.13-1.61,10.66-.92,12.62,.95,1.38,2.93-2.32,8.54c-2.4,3.5-5.6,6.38-9.33,8.41-.92,.56-1.79,1.2-2.61,1.89-2.2,1.71-2.19,2.44-2.54,3.46s-1.02,6.07-2.28,7.55-3.2,8.84-2.48,10.14c1.29,2.92,2.16,6.01,2.58,9.17,.34,3.26,.09,3.02,3.32,4.53s7.77,6.72,8.57,7.98,8.46,2.58,13.39,7.12,17.83,13.29,14.73,11.49-10.28-5.78-14.47-10.28-10.97-6.83-10.97-6.83c0,0,.87,3.7-.55,3.73s-2.54,5.86-2.54,5.86c0,0,2.34-5.09,1.55-9.34s-9.44-10.08-11.67-10.74c-.97-.36-2.05,.14-2.41,1.11-.06,.17-.1,.34-.11,.52,.64-.87,1.15-1.83,1.54-2.84,.76-1.87-1.91-7.86-2.76-11.05s1.3-8.19,1.05-7.03-4.46,5.26-2.82,3.84,2.18-4.1,3.84-6.04,1.22-6.59,3.13-9.69,4.27-2.97,6.85,.23c2.58,3.2,5.46,8.17,12.86,4.55s3.95-.98,14.45,2.53,11.6-1.71,18.41-6.07,5.45-7.09,8.01-2.29,11.87,9.79,14.98,6.94-6.98-13.38-1.62-10.37c5.36,3.01,5.34-1.43,13.02,4.36s1.42,7.85-2.37,8-8.29,1.67-9.68,4.49-10.7,2.25-17.29-.45-6.4-1.41-11.01,1.28-7.19,3.45-13.3,1.66-10.16-3.09-12.54-1.61-4.81-1.3-8.34-2.2-12.78-4.2-11.14-3.16,3.45,4.03,8.77,5.48,17.46,7.87,22.03,10.17,16.8,5.44,22.88,6.04,5.69-.59,13.27,.43l9.69,4.87s-4.38-3.95-6.49-4.86-1.33-2.37,3.76-3.44,6.72-3.54,9.32-7.43,4.82-9.03,7.97-9.73c2.43-.37,4.9-.3,7.3,.22,0,0-8.13,.94-8.23-1.55-.28-1.79,.22-3.6,1.37-5,1.26-1.85,5.3-6.73,5.3-6.73,0,0,2.91-1.64,7.96-4.52s5.23-6.17,5.23-6.17c-1.28-.35-2.63-.3-3.87,.16-1.73,.78,1.34-1.82,2.24-3.33s3.71-5.84,4.88-7.71,2.51-2.24,6.79-.99,5.14,6.9,5.14,6.9c0,0-.05-.3-1.43-4.64s-4.4-2.88-3.01-4.18,4.47-4.13,6.62-2.7,.62,4.29-1.19,9.6c-1.71,5.33-2.88,10.81-3.49,16.37-.36,3.89-1.25,6.05-2.85,9.97s-5.01,14.21-5.04,16.8-3.09,8.54-3.81,14.56-4.53,12.05-4.53,13.11,.92,3.39,.6,8.57,1.91,16.07-.45,24.46-10.67,23.99-9.6,31.99,26.98-33.43,58.41-38.35,73.99,19.53,73.99,19.53"/></g></svg>