<?xml version="1.0" encoding="UTF-8"?><svg id="Layer_1" xmlns="http://www.w3.org/2000/svg" viewBox="0 0 429.91 895.3"><defs><style>.cls-1{fill:#fff;}.cls-2{stroke:#363435;stroke-linecap:round;stroke-linejoin:round;stroke-width:2px;}.cls-2,.cls-3{fill:none;}.cls-3{stroke:#707070;stroke-miterlimit:4;stroke-width:1px;}.cls-4{fill:#50b3ff;}</style></defs><g id="Rectangle_135"><rect class="cls-1" x="33.42" y="32.64" width="378.19" height="848.96" transform="translate(-15.87 8.07) rotate(-2.01)"/><rect class="cls-3" x="33.92" y="33.14" width="377.19" height="847.96" transform="translate(-15.87 8.07) rotate(-2.01)"/></g><path id="Path_32" class="cls-4" d="M241.63,514.98c-33,12-73,9-81-15s-5-57-21-98-55-34-65-99-8-143,99-163,155,39,157,96-4,105-36,135-23,12-20,62,0,70-33,82Z"/><path id="electronic_engeening_copy" class="cls-2" d="M35.48,498.78c110.02-17.62,185.76-2.88,177.49-2.39-11.71,.68-33.2,1.54-34.81-6.26-1.59-7.8,1.25-12.24-.69-12.69-1.97-.47-12.67,1.67-14.29-6.61-1.6-8.28,16.81-17.88,10.5-14.36-6.29,3.52-17.59-.2-15.32-9.5,2.28-9.32,18.34-13.52,12.52-10.48-5.82,3.04-13.24-2.21-13.37-9.56s4.67-13.28,8.08-13.34,88.94,.45,90.31-4.47-3.46-25.52,11.9-42.89c15.34-17.37,51.55-49.17,45.4-121.93-5.79-69.08-66.31-98.7-117.85-96.19-56.37,2.76-87.91,29.33-102.01,67.23-16.12,43.38-4.25,86.85,14.69,116.7,15.18,23.93,29.96,33.08,35.56,46.18,5.59,13.1,4.26,25.46,13.08,28.25s32.29,2.39,35.14-2.55,1.13-48.88,.11-50.82c0,0-3.54-8.91-4.4-7.12-.86,1.82,.58,7.59-1.87,7.75s-3.58-7.2-4.79-5.84-1.34,7.05-4.13,6.33c-2.81-.73-2.25-7.68-4.24-5.96-1.97,1.72-.46,6.7-4.13,5.99-3.7-.71-2.72-8.9-4.59-7.84-1.87,1.03-3.81,6.1-6.18,4.45s.44-7.84-1.01-7.36-4.15,4.64-5.64,2.78,2.34-6.96,.33-7.15-8.08,3.94-8.69,1.38,5.03-6.46,1.99-7.29-5.84,4.24-7.59,.47,4.34-7.11,2.77-8.19c-1.59-1.09-8.61-.19-8.3-2.32s6.86-3.58,5.28-5.55c-1.6-1.97-8.64-2.31-7.34-4.9s5.78-1.55,5.51-4.01-6.2-3.35-4.67-5.84,6.35-1.45,6.43-3.34-4.88-4.83-3.14-6.75c1.77-1.92,6.05,1.35,6.35-1s-4.81-6.95-1.92-8.34,7.2,3.22,7.62,1.33-3.15-7.21-.91-7.9c2.22-.7,5.99,4.59,6.6,1.12s-2.1-6.11,0-6.8,5.55,4.94,6.96,2.57-1.22-6.12,2.01-6.52,4.24,5.73,6.1,4.04c1.86-1.72-.45-6.14,3.13-5.85s3.93,7.31,5.79,5.7,2.34-6.73,5.05-5.23c2.71,1.52,1.34,6.46,4.02,6.08s3.37-5.09,5.52-3.21c2.15,1.85-1.23,6.51,1.69,6.89,2.92,.41,6.08-4.02,7.67-2.36s-2.01,6.18,0,7.03,6.34-2.11,7.6-.02-2.47,5.84-.45,6.81,5.65-2.33,6.37-.11c.7,2.22-3.37,5.43-1.34,6.71,2.02,1.31,6.69,.23,7.19,2.34s-4.48,5.65-3.12,6.63,6.43,3.69,5.24,5.6-6.38-.23-3.86,3.09c2.51,3.3,5.42,2.91,3.77,4.74s-6.89,1.46-5.53,2.78,5.18,2.26,3.3,4.29c-1.85,2.03-8.48,.37-7.22,2.24s4.32,5.18,3.02,6.43c-1.32,1.25-8.53-2.2-7.82,.47,.73,2.67,4.46,6.84,.81,7.36-3.68,.52-6.53-2.57-6.62-1s4.15,7.08,.91,8.02c-3.21,.94-9-3.08-9.07-1.96-.1,1.12,3.34,6.63,.66,5.36-2.71-1.3-7.76-16.16-8.99-16.25s-11.76,4.11-23.04-2.07c-11.28-6.18-11.97-21.35-10.09-28.64s12.47-14.62,21.88-14.12c9.38,.5,17.59,3.73,20.96,10.7,3.35,6.98,3.87,10.54,1.21,18.96s-7.9,14.77-11.07,12.91c-3.15-1.84-8.05-12.81-8.81-12.25-.76,.58-1.24,12.62-4.83,11.8s1.33-14.43,.66-13.53c-.64,.9-4.07-2.27-4.07-2.27,0,0-12.54,10.59-11.95,6.57,.59-4.04,12.14-8.58,11.34-8.91-.78-.33-.18-3.8-2.76-4.1s-14.21-2.1-11-3.04,12.55,1.79,12.96,.55c.43-1.24,1.83-3.49,1.92-4.72s-8.32-10.35-3.72-8.65c4.6,1.72,6.39,7.49,8.5,7.46s4.93,1.03,5.14-.09,1.01-12.65,2.2-8.41c1.19,4.21-.04,11.06,.53,11.16s2.73,2.64,3.84,2.39,9.48-6.96,8.96-4.39c-.5,2.58-6.58,6.48-6.58,6.8,0,.34-.06,3.23-.16,4.03-.1,.77,7.55,3.9,5.9,5.93s-8.09-3.09-9.42-2.64c-1.33,.48-4.87,2.54-4.86,3.11s11.01,17.13,11.36,17.9,2.98,3.95,8.17,6.44c5.16,2.48,23.44-1.49,29.18-7.82,0,0,8.83-8.18,10.56-14.81,1.73-6.61,1.23-11.74,2.46-12.17s5.97,.63,6.56-1.14,0-6.26,1.63-7.13c1.62-.85,6.86-2.28,5.83-.83-1,1.45-1.93,1.79-1.29,3.09,.64,1.33,3.08,5.59,5.43,4.73s5.79-3.17,5.77-4.83-4.54-7.52-4.52-6.5-2.12,2.29,.63,1.13c2.76-1.19,4.54-4.9,4.54-4.9,0,0,9.7,1.79,10.18,.56,.5-1.24,2.14-6.61,1.1-7.53s-7.66-3.67-7.66-3.17-.82,6.79,.14,3.07-.46-8.53-.46-8.53c0,0,9.33-1.59,8.24-5.08s-.93-6.36-3.17-6-9.54,1.1-8.69,2.92,5.64,5.14,2.07,1.6-8.4-4.39-7.48-5.22,1.87-10.32,1.66-10.61c-.21-.32-5.86-.63-6.49-.5-.61,.1-4.85,5.43-4.08,7.37s6.29,2.15,4.23,1.07c-2.07-1.1-9.36-.16-9.86-.36-.53-.19-2.88-6.32-4.93-5.97s-6.53,2.77-6.51,3.71,1.56,7.58,3.1,6.84c1.53-.75,3.33-3.65,1.51-2.28s-5.04,5.93-6.27,5.75-8.88-3.13-9.17-1.28-1.61,8.24-.04,9.15,8.56,1.7,8.13,.48-1-3.69-1.58-1.73,.74,7.29,.55,8c-.19,.73-7.08,1.14-6.83,3.71s3.45,8.77,4.27,8.76,6.33-2.47,6.39-4.02c.09-1.55-3.15-4.36-2.19-1.51,.98,2.85,5.32,4.94,5.75,6.07s-.9,7.12-.48,8.02c.43,.93,3.94,1.48,4.14,1.07s3.86-15.06,3.23-15.87-6.63-2.96-5.31-9.56c1.32-6.6,5.39-9.74,10.95-8.81s8.81,4.47,8.69,9.41-2.64,8.17-6.63,9.06-6.69,.23-6.02,1.85c.64,1.63,6.33,4.22,11.74,1.14,5.39-3.07,7.81-11.85,4.22-18.16-3.61-6.31-8.08-9.51-17.07-7.11-8.99,2.41-11.98,8.83-10.53,14.97s7.2,12.42,7.27,9.84-2.97-6.21-9.76-6.3c-6.78-.09-10.33,3.04-14.97-4.07s-7.21-13.44-2.82-21.23c0,0,3.2-1.65,3.18-3.28s-.47-3.66-.07-3.94c.52-.28,1.07-.52,1.63-.71,0,0,1.87,5.27,3.19,4.43,1.35-.84,4.86-1.99,4.7-3.47-.16-1.5-4-3.6-3.07-4.29,.94-.7,.65-1.92,1.89-1.4s2.94,4.16,4.12,2.91c1.21-1.25,4.41-4.42,3.98-5.37s-5.08-3.03-4.41-3.73-.17-2.18,.92-1.93,5.64,3.71,6.16,2.35c.63-2.33,1.09-4.7,1.38-7.1,0-.41-4.08-.61-4.51-1.56-.25-.7-.31-1.45-.17-2.18,0,0,5.59,.72,5.57-.09s.71-6.13,.16-6.4-5.98,.51-5.99-.31-.59-2.31,.09-2.6,5.84-.65,5.82-1.46-1.61-6.23-2.02-6.36-4.32,1.3-4.6,.9-1.12-1.35-.85-1.9,4.87-1.58,4.29-3.05c-.57-1.49-3.48-5.52-4.03-5.64s-3.34,2.92-4.31,2.12-2.61-.91-1.8-1.74,3.75-3.18,3.32-4.13-5.5-3.71-6.18-3.7-1.84,3.97-2.53,3.84-2.19-.37-2.2-1.05,.59-5.31,.59-5.31c0,0-6.57-2.21-6.83-1.66s.09,5.57-.59,5.59-2.98,1.14-3,.05-.78-5.56-.78-5.56l-7.21,.53s1.31,4.87,1.05,5.28-1.75,1.4-2.17,.72-1.87-5.41-3.07-5.11c-1.22,.29-5.53,2.55-5.66,2.94-.13,.41,3.62,5.24,3.07,5.39s-1.61,1.53-2.72,.59-4.01-4.42-4.96-3.85-4,4.55-3.85,5.09,3.43,2.54,3.44,3.06,.04,2.59-1.05,2.34-5.07-2.64-5.47-1.96c-.79,1.65-1.35,3.39-1.69,5.19,.02,.96,3.69,1.58,3.84,2.26s.05,2.73-.36,2.85c-.41,.14-4.78-1.42-5.17-.46s-1.14,5.18-.58,5.86,4.78,1.15,4.78,1.15c0,0,.87,2.83-.09,2.98s-4.62,.08-4.61,.49,1.18,5.28,1.18,5.28c0,0,4.73-1.45,4.87-1.04s.86,2.17,.86,2.17c0,0-5.29,.5-4.72,1.99s2.82,4.98,4.29,4.96c1.13-.17,2.17-.72,2.95-1.55l3.29,2.4s-4.33,1.17-3.46,3.86,4.44,5.36,5.39,5.21,2.26-3.43,3.2-3.04c.96,.39,2.74,.5,2.62,1.46s-3.2,2.9-2.25,4.25c.98,1.35,6.17,2.74,6.17,2.74l1.85-3.83s3.12-.05,2.86,1.04-2.53,3.84-.47,4.22,6.4,.44,6.53-.11-.75-3.65-.07-3.94,2.05,.38,2.05,.38c0,0-.5,2.88,1.01,3.12s.46-13.07-.63-13.05-14.32-1.53-13.65-2.64,4.57-11.09,3.23-9.43-1.76,9.13-5.32,7.17c-3.56-1.99-8.95-7.06-7.63-8.45,1.34-1.39,11.25-2.38,9.6-3.03s-9.64,.57-10.08-1.06-1.8-9.21,.38-9.52,10.81,4.3,9.69,2.43c-1.12-1.89-8.27-5.84-6.92-6.96s6.31-5.27,7.13-5.15,5.06,9.97,5.02,7.54-1.25-9.22-.16-9.51,9.94,.79,9.94,.79c0,0-3.91,9.85-2.04,8.59,1.89-1.26,3.67-7.96,6.01-6.77s5.68,6.43,5.69,6.84-7.96,4.21-5.91,4.45,6.37-1.75,7.21-.12,1.51,8.28,1.38,8.69-7.92-1.5-7.5-.96,5.49,3.3,5.51,4.12-3.44,6.43-3.44,6.43c0,0-5.67-5.48-5.66-4.8s3.23,6.48,2.57,6.9c-.68,.42-5.84,.51-5.84,.51l-1.92-8.41s5.26-2.27,5.18-6.89-2.18-7.59-6.65-7.1-7.47,1.22-6.43,5.82c1.03,4.6,5.97,7.25,6.11,7.66s-1.84,3.97,.39,7.07c2.24,3.08,7.15,4.5,7.59,6.27s3.35,13.55-7.07,16.44c-10.42,2.91-30.02-5.34-36.33-16.52-6.31-11.18-23.34,.24-18.72-.59,4.63-.81,24.98-39.02,14.55-49.11-10.43-10.09-27.55-11.25-39.3,2.63-11.73,13.88-20.91,35.29-20.49,59.72s2.3,33.69,10.87,34.27,22.42-16.99,25.58-33.66c3.13-16.67-1.16-25.63-9.47-11.08s-19.51,30.39-16.48,50.85c3.03,20.48,11.47,42.82,37.1,55.08,25.63,12.26,62.73,11.63,69.93,2.73,7.18-8.92,7.02-18.21,3.16-15.21s-8.07,13.81-7.83,27.51c.23,13.67-.49,28.84,5.92,32.15s26.38-.93,27.43,3.45,3.52,6.29,5.52,8.71c2,2.4,7.08,13.56,1.8,20-5.26,6.44-72.88-5.11-74.28-.19-1.37,4.92,66.52,.19,72.68,2.45,5.4,1.98,6.59,14.2,.3,17.72s-70.35-8.5-66.26,1.7,60.79-1.12,66.49,2.28c5.17,3.1,8.51,12.08-1.69,15.66s-62.16-5.79-59.58,2.47,42.9-6.6,45.94,1.18c3.07,7.78,6.67,18.93-6.99,20.14-13.66,1.21-24.97-2.99-12.76-3.7,12.21-.69,18.62,3.1,32.28,1.89,106.99-7.37,75.53-36.14,110.21-47.57,.37-.43,3.22-1,7.59-1.67,12.25-1.86,36.42-4.2,36.42-4.2"/></svg>