<?xml version="1.0" encoding="UTF-8"?><svg id="Layer_1" xmlns="http://www.w3.org/2000/svg" viewBox="0 0 429.91 895.3"><defs><style>.cls-1{fill:#fff;}.cls-2{stroke:#000;stroke-linecap:round;stroke-miterlimit:22.93;stroke-width:2px;}.cls-2,.cls-3{fill:none;}.cls-3{stroke:#707070;stroke-miterlimit:4;stroke-width:1px;}.cls-4{fill:#ffe500;}</style></defs><g id="Rectangle_131"><rect class="cls-1" x="28.87" y="31.24" width="378.19" height="848.96" transform="translate(-15.82 7.91) rotate(-2.01)"/><rect class="cls-3" x="29.37" y="31.74" width="377.19" height="847.96" transform="translate(-15.82 7.91) rotate(-2.01)"/></g><g id="Rectangle_132"><rect class="cls-1" x="29.05" y="32.11" width="378.19" height="848.96" transform="translate(-15.85 7.92) rotate(-2.01)"/><rect class="cls-3" x="29.37" y="31.74" width="377.19" height="847.96" transform="translate(-15.82 7.91) rotate(-2.01)"/></g><path id="Path_31" class="cls-4" d="M164.19,500.37c-15,3-30,6-31-39s-3-211,10-223,71-33,73-44-15-45,10-49,43,8,40,34,63,27,72,54,31,227,12,250-59,32-96,17-75-3-90,0Z"/><g id="clothes_copy"><path id="Path_14" class="cls-2" d="M30.61,487.65c13.04,6.26,26.75,.71,34.57-2.89,9.2-5.5,15.16-17.1,20.64-21.36s12.71-6.81,21.05-3.39,17.77,12.85,24.92,17.98c7.16,5.1,12.04,5.9,17.52,5.06,5.48-.8,11.59-3.25,11.03-9.81s-7.75-17.31-9.29-49.36,2.55-85.39,5.9-118.13c3.39-32.74,6.04-44.82,9.67-50.09s8.17-3.7,16.34-.63,19.97,7.61,28.52,9.04,13.93-.31,17.52-3.14c3.63-2.83,5.52-6.77,6.28-6.77s.49,3.94,.31,10.3-.18,15.19-.24,25.8-.24,23.04,.98,29.74c1.19,6.7,3.77,7.68,4.75-10.23s.35-54.7,.18-79,.07-36.1,.31-42.2,.49-6.49,1.88-7.65c2.19-1.56,4.06-3.53,5.51-5.79,1.59-2.78,2.22-6,1.82-9.18-.49-2.65-2.16-4.19-4.92-5.69s-6.6-3-9.35-.73c-2.79,2.27-4.5,8.27-5.9,10.33s-2.44,.17-1.54-1.99,3.77-4.64,7.47-5.62,8.17-.52,10.23,2.02c2.02,2.55,1.61,7.12-.42,10.02s-5.59,4.12-7.02,5.72c-1.4,1.57-.66,3.49-.35,5.55,.28,2.06,.14,4.26-2.27,5.72s-7.05,2.23-9.84,3.8-3.66,4.01-2.93,7.02c.73,3,3.11,6.6,9.01,7.71,5.93,1.12,15.39-.24,19.83-2.72,4.4-2.48,3.77-6.04,1.85-8.66s-5.1-4.29-10.82-3.91-14,2.79-17.24,6.21c-3.21,3.42-1.36,7.78,1.19,14.42,2.58,6.63,5.87,15.5,7.92,20.35,2.09,4.85,2.97,5.72,5.06,3.7,2.1-1.99,5.38-6.88,7.96-13.37,2.62-6.53,4.5-14.7,5.69-19.48s1.64-6.18,3.11-5.55c1.5,.66,4.01,3.35,3.42,11.56s-4.33,21.89-6.04,29.15-1.36,8.06-2.06,6.7-2.44-4.99-4.29-6.91-3.8-2.16-6.63-.87c-2.83,1.26-6.56,4.05-9.5,6.18s-5.06,3.63-6.11,3.84-1.01-.87-1.71-5.55c-.7-4.64-2.13-12.88-3.91-19.65-1.78-6.81-3.91-12.18-5.1-15.71s-1.43-5.24-.49-6.18c1.16-.93,2.78-1.02,4.05-.24,.98,.8,.87,2.55-2.44,6-4.34,4.39-9.29,8.14-14.7,11.14-4.99,2.58-8.52,2.58-9.18,4.29s1.54,5.13,3.07,9.5,2.44,9.6,3.14,12.22c.73,2.62,1.26,2.55,3.46,2.03s6.04-1.47,7.85-1.68c1.85-.21,1.71,.35-1.15,2.72-2.86,2.41-8.48,6.63-8.52,11.38s5.51,10.02,12.74,23.91,16.13,36.41,20.67,47.86c4.54,11.41,4.75,11.76,5.87,7.4,1.08-4.36,3.07-13.48,5.48-22.38,2.35-9.35,5.72-18.41,10.05-27.02,4.85-9.46,11.76-19.65,12.46-25.17s-4.85-6.32-8.83-6.74-6.35-.42-4.78-1.08c1.57-.7,7.12-2.06,11-3.11s6.07-1.82,7.02-2.83c.94-1.01,.7-2.34,.21-7.96-.49-5.65-1.15-15.64-2.13-22.31-.94-6.67-2.2-10.02-1.4-10.58s3.6,1.71,9.42,5.48c7.32,4.74,14.9,9.07,22.69,12.99,8.03,3.94,15.29,6.53,19.06,9.29,3.77,2.72,4.05,5.62,5.24,25.73,1.19,20.11,3.32,57.49,4.36,80.88s1.05,32.81,2.34,44.19,3.84,24.71,6.42,37.32c2.58,12.57,5.13,24.37,4.01,29.67s-5.9,4.12-12.5,3.77c-6.99-.35-14,.14-20.88,1.47-5.9,1.29-9.32,3.35-10.86,1.89s-1.19-6.42-.59-23.77c.59-17.38,1.47-47.13,1.19-65.63-.24-18.47-1.64-25.66-4.36-17.45s-6.84,31.84-6.07,52.71c.74,15.54,3.67,30.9,8.69,45.62,2.27,6.6,1.22,1.68,.7-1.33s-.49-4.05,3.21-4.92,11.07-1.57,17.59-2.41c6.53-.87,12.15-1.89,15.39-1.89s4.12,1.01,3.67,6c-.42,4.96-2.13,13.86-3,19.17s-.87,7.02-4.29,7.26-10.26-.94-21.12,.17-25.76,4.54-38.15,5.06-22.34-1.89-26.77-6.42-3.42-11.21-.98-19.3,6.35-17.59,4.82-32.71c-1.54-15.15-8.52-35.92-12.15-48.45-3.66-12.53-3.98-16.83-3.66-3.63,.35,13.16,1.36,43.81,2.13,63.57s1.29,28.66-1.78,34.04-9.74,7.26-17.04,8.73c-8.72,1.8-17.64,2.46-26.53,1.95-11.45-.66-22.86-2.04-34.14-4.12-7.85-1.54-8.73-2.58-.42-4.19,8.31-1.64,25.76-3.84,33.62-5.9s6.14-3.95,3.66-10.02-5.73-16.34-8.03-33.2-3.66-40.28-4.78-59.2-1.96-33.27-2.72-22.59-1.47,46.46-.35,67.69,4.01,27.89,5.48,31.24,1.47,3.35-4.89,4.19c-6.32,.87-18.99,2.58-26.25,3.77s-9.15,1.89-9.15,5.31,1.89,9.57,3.35,11.62c1.47,2.06,2.48,0,2.13-5.9s-2.06-15.67-2.58-26.18,.18-21.82,1.29-48.24,2.65-68,3.66-94.46c1.01-26.43,1.54-37.74,3.84-43.88s6.42-7.19,11.55-9.43c5.12-2.33,10.12-4.93,14.98-7.79,3.66-2.13,4.89-3,5.9,2.3s1.88,16.76,4.54,31.31c2.76,14.35,7.23,31.98,11.49,45.94,4.29,13.93,8.38,24.23,12.92,30.13s9.5,7.43,15.4,9.08,12.74,3.35,16.34,5.83,3.95,5.73,3.18,8.13c-.63,2.05-2.18,3.69-4.19,4.43-1.54,.52-2.72,0-3.07-.94-.32-1.06,.28-2.18,1.34-2.5,.14-.04,.29-.07,.44-.08,1.64-.24,4.36,.59,3.49,7.09s-5.38,18.57-7.05,29.64c-1.67,11.07-.56,21.12-.31,30.68s-.42,18.68-.45,27.3c0,8.62,.63,16.83,15.22,23.98,14.63,7.19,43.25,13.37,64.86,8.13s36.24-21.89,48.98-23.56c12.74-1.64,26.33,18.43,40.59,18.78"/></g></svg>