<?xml version="1.0" encoding="UTF-8"?><svg id="Layer_1" xmlns="http://www.w3.org/2000/svg" viewBox="0 0 429.91 895.3"><defs><style>.cls-1{fill:#fff;}.cls-2{stroke:#707070;stroke-miterlimit:4;stroke-width:1px;}.cls-2,.cls-3{fill:none;}.cls-3{stroke:#332c2b;stroke-miterlimit:2.61;stroke-width:2px;}.cls-4{fill:#ff261e;}</style></defs><g id="Rectangle_136"><rect class="cls-1" x="29.98" y="27.1" width="378.19" height="848.96" transform="translate(-15.68 7.95) rotate(-2.01)"/><rect class="cls-2" x="30.48" y="27.6" width="377.19" height="847.96" transform="translate(-15.68 7.95) rotate(-2.01)"/></g><path id="Path_34" class="cls-4" d="M97.98,468.18c-3.33,3.33-18,17.33-17.33-20s-8-36,2.67-49.33,96.67-104.67,110-96.67,64,68,64,68c0,0,61.33-36.67,82.67-34.67s32,78.67,29.33,95.33-36.67,126-50,122-90.67-44.67-112-44,11.33-12.67-30-23.33-76-20.67-79.33-17.33Z"/><path id="books-01" class="cls-3" d="M29.98,457.72c21.42,.61,42.39-2.51,51.13-3.23s10.03-1.58,11.82-3.29,4.08-4.3,5.8-6.09,2.86-2.79,7.81-2.22,13.68,2.72,26.57,6.73,29.93,9.88,39.82,13.46,12.6,4.87,8.74,4.01-14.32-3.87-26.64-7.38-26.5-7.52-37.1-10.53-17.62-5.01-21.41-6.09-4.37-1.22-4.65-4.51-.29-9.74-.21-13.68,.21-5.37,3.87-4.3,10.81,4.65,23.7,10.89,31.51,15.11,43.33,21.13,16.83,9.17,16.4,9.6-6.3-1.86-19.62-7.73-34.09-15.33-46.62-20.7-16.83-6.66-17.26-8.95,3.01-5.59,5.44-8.38c2.43-2.79,3.87-5.09,6.8-5.23s7.38,1.86,17.54,8.45,26.07,17.76,35.52,24.56,12.46,9.24,9.16,8.02-12.89-6.09-24.92-13.61-26.5-17.69-35.59-23.42-12.82-7.02-13.46-8.66,1.79-3.65,4.65-6.44,6.16-6.38,9.6-6.23,7.02,4.01,15.25,11.53c8.24,7.52,21.13,18.69,31.65,27.71s18.69,15.9,23.7,20.84,6.88,7.95,2.93,5.44-13.68-10.53-25.92-21.13-27-23.77-36.02-31.58-12.32-10.24-14.04-11.67-1.86-1.86,2.22-5.94,12.39-11.82,26.93-25.57,35.3-33.51,46.41-42.47,12.53-7.09,17.47-1.79,13.39,14.04,23.42,24.71c10.03,10.67,21.64,23.28,27.23,30.08s5.15,7.81,4.3,9.02-2.15,2.65-12.32,17.04c-10.17,14.39-29.22,41.75-38.89,55.71s-9.95,14.54-9.6,16.4,1.36,5.01,1.07,7.09-1.86,3.08-6.59,1.93-12.6-4.44-27.5-8.59-36.81-9.16-49.13-11.96-15.04-3.37-16.18-4.08-.72-1.58,2.22-1.79c2.94-.21,8.38,.21,20.55,2.87s31.08,7.52,44.11,11.46,20.19,6.95,25.49,10.03c4.11,2.42,7.91,5.33,11.32,8.66,2.58,2.43,4.3,4.15,5.94,4.37s3.22-1.07,6.23-1.43,7.45,.21,19.84,4.37c12.39,4.15,32.73,11.89,47.91,17.69s25.21,9.67,30.94,11.67,7.16,2.15,8.03,1.83,1.18-1.11,2.9-5.48,4.85-12.32,11.64-30.18,17.25-45.65,21.83-59.72,3.3-14.43,2.01-14.43-2.58,.36-9.56,17.44-19.66,50.88-26.71,67.57-8.49,16.26-21.63,11.74-37.99-13.11-53.92-18.58-22.95-7.84-28.5-9.1-9.63-1.4-11.78-1.79-2.36-1.04-3.04-2.79-1.83-4.62-2.58-6.59-1.11-3.04,1.75-3.4,8.95,0,19.87,1.43,26.68,3.94,40.25,6.26,24.96,4.48,33.55,6.3,14.4,3.33,17.44,5.23,3.33,4.19,3.33,7.2-.29,6.73-.47,9.02-.25,3.15-2.72,2.47-7.34-2.9-16.47-5.26-22.52-4.87-35.38-8.88-25.17-9.52-34.45-12.1-15.5-2.22-18.58-2.58-3.01-1.43-1.61-2.61,4.12-2.47,17.37-1.07c13.25,1.4,37.02,5.48,54.25,9.24s27.89,7.2,33.94,8.31,7.48-.11,13.71-15.25,17.26-44.22,23.06-59.44,6.38-16.58,6.91-16.18,1.04,2.54,1.22,4.58,.04,3.98-.32,3.47-.93-3.44-1.18-7.99-.18-10.71-.61-14.4-1.36-4.91-2.36-3.76-2.08,4.65-3.44,10.13c-1.57,7.05-3.54,14.01-5.91,20.84-2.9,7.91-7.05,16.29-11.71,26.89s-9.81,23.42-12.57,31.22-3.11,10.6-.86,7.38,7.12-12.46,13.18-26.46,13.28-32.76,17.29-44.47,4.8-16.36,5.12-19.48c.29-2.61,.21-5.25-.25-7.84-.43-3.15-1.14-7.88-2.11-8.56s-2.18,2.69-4.83,10.28-6.73,19.41-11.64,31.87-10.63,25.57-14.86,34.8-6.95,14.61-8.56,17.69-2.11,3.87-13.07,3.9-32.37-.68-47.69-1.15-24.56-.68-25.17-1.75,7.41-3.01,20.84-4.04,32.26-1.18,44.11-1.25,16.72-.07,19.66-1.72,3.94-4.94,9.99-21.52,17.15-46.44,22.63-61.69,5.33-15.9,3.01-16.01c-3.37,.03-6.75,.24-10.1,.61-3.26,.29-5.27,.43-8.02,4.22s-6.27,11.24-11.64,21.99-12.6,24.78-17.22,33.08-6.62,10.89-9.31,12.43-6.05,2.04-13.36,3.76-18.55,4.65-27.28,7.38c-7.55,2.31-14.92,5.16-22.06,8.52-7.09,3.29-15.04,7.38-19.51,9.74s-5.48,3.01-4.83,2.18,2.93-3.12,8.99-7.05c9.14-5.79,18.71-10.89,28.61-15.25,12.75-5.73,28.43-11.6,36.52-14.54s8.59-2.93,10.49-5.37,5.19-7.3,13.64-21.84,22.06-38.73,29.15-50.04,7.66-9.74,7.99-8.27,.39,2.83-.82,5.41c-1.22,2.48-2.68,4.83-4.37,7.02-.64,.64,.57-1.86,1.72-4.8,1.14-2.67,1.92-5.47,2.33-8.34,.11-2.04-.75-2.76-3.04-2s-6.02,2.97-11.96,5.87-14.11,6.48-21.63,9.81-14.4,6.41-20.91,9.74-12.67,6.91-18.9,14.14-12.53,18.12-19.8,29.25-15.51,22.52-22.63,32.08-13.14,17.29-16.66,22.02-4.53,6.45-4.21,9.62c.48,3.76,1.87,7.34,4.03,10.46,1.52,2.2,4.12,3.39,6.78,3.12,2.29-.2,4.44-1.28,18.01,2.62,13.57,3.9,38.56,12.78,55.68,18.9s26.35,9.49,31.26,11.03,5.48,1.25,12.03-15.76,19.08-50.74,25.53-68,6.8-18.05,7.05-18.85,.39-1.61,4.37-2.29c6.48-.95,13.05-1.06,19.55-.32,7.77,.91,15.51,3.27,23.6,2.98"/></svg>