<?xml version="1.0" encoding="UTF-8"?><svg id="Layer_1" xmlns="http://www.w3.org/2000/svg" viewBox="0 0 429.91 895.3"><defs><style>.cls-1{fill:#fff;}.cls-2{stroke:#707070;stroke-miterlimit:4;stroke-width:1px;}.cls-2,.cls-3{fill:none;}.cls-4{fill:#97dc76;}.cls-3{stroke:#000;stroke-linecap:round;stroke-linejoin:round;stroke-width:2px;}</style></defs><g id="Rectangle_134"><rect class="cls-1" x="28.58" y="29.87" width="378.19" height="848.96" transform="translate(-15.78 7.9) rotate(-2.01)"/><rect class="cls-2" x="29.08" y="30.37" width="377.19" height="847.96" transform="translate(-15.78 7.9) rotate(-2.01)"/></g><path id="Path_33" class="cls-4" d="M118.69,532.27c-8.67,.14-12.67-3.19-12.67-3.19,0,0,18.67-88,6-92s-32,9.33-28-42.67-.67-56,17.33-59.33,36.67,5.33,33.33-16.67-8.67-37.33,11.33-30,18,1.33,20.67-20.67-3.33-15.33,21.33-19.33,40.67,10,68.67,8,69.33-17.33,86.67-13.33,12.67,10,6.67,40.67-28,133.33-38,139.33,21.33,96.67,13.33,102-24,28.67-27.33,0-11.33-73.33-20.67-74.67-29.33-3.33-29.33,7.33-4.67,94-10,100.67-24,14.67-25.33,0,8.67-98,0-100.67-68-17.33-66.67-7.33-18.67,81.71-27.33,81.86Z"/><path id="interior_copy" class="cls-3" d="M29.69,451.08h106.52c1.34,0,2.43,1.08,2.43,2.43,0,.22-.03,.43-.09,.64l-16.42,60.95c-.22,.78-.97,1.28-1.77,1.17l-3.38-.47c-.88-.12-1.49-.92-1.37-1.8,0-.02,0-.05,.01-.07l14.71-83.39c.16-.88,1.01-1.47,1.9-1.3,.01,0,.03,0,.04,0,10.4,2.31,67.32,14.64,82.62,11.83,16.85-3.11,35.47-68.07,39.91-77.83s26.16-13.75,29.26-15.07-1.33-4.43,0-27.27,11.97-63.85,6.65-63.63-41.46,34.36-70.95,26.38-51.22-34.59-41.9-4.22-21.73,112.85-7.32,113.96c13.5,1.04,65.18,15.07,53.44-.88-9.18-12.47,18.85-86.92,10.2-89.35s-26.38,17.95-58.75,9.76-37.03-22.17-33.04-1.34-2.66,43.24-5.98,56.76-12.2,22.17-.67,28.38,93.56,15.52,103.76,13.31,12.86-20.84,17.51-37.7,32.14-20.84,47-23.95c7.78-1.63,11.75-77.82,28.38-92.01,2.08-1.77-44.35,11.53-78.04,10.87s-53.21-9.53-59.64-9.53-6.43,58.75-13.31,76.93-53.88,3.32-70.06,9.32c-16.18,5.99-21.28,44.35-17.3,63.41s27.27,25.27,47.67,29.71c18.01,3.91,69.86,11,78.91,12.23,.78,.1,1.37,.76,1.39,1.55l2.15,92.4c.02,.87,.73,1.57,1.6,1.58h4.64c.85,0,1.56-.67,1.6-1.52,.19-3.39,.88-14.34,3.48-49.7,3.76-51.22,1.11-47.67,7.09-51.43,17.39-10.95,31.48-57.43,36.8-70.95s24.16-11.75,30.6-16.41,18.18-97.55,29.26-97.11c6.65,.27-11.97,56.53-17.51,88.24-5.31,30.41-21.85,71.42-23.19,74.73-.06,.15-.15,.29-.25,.41-7.37,8.49-48.39,25.48-48.83,20.64-.44-4.87,46.8-19.49,47.44-15.52,3.39,20.77,14.88,78.6,17.13,89.87,.17,.87-.39,1.72-1.26,1.89-.1,.02-.21,.03-.31,.03h-3.27c-.71,0-1.33-.47-1.54-1.15l-18.64-61.49c-.62-2.05,.54-4.21,2.59-4.83,.36-.11,.74-.16,1.11-.17l111.97-3.46"/></svg>