<?xml version="1.0" encoding="UTF-8"?><svg id="Layer_1" xmlns="http://www.w3.org/2000/svg" viewBox="0 0 11294.96 4278.47"><defs><style>.cls-1{fill:#222;}</style></defs><g id="Group_22"><path id="Path_21" class="cls-1" d="M296.1,3975.02c35.33,14.34,75.93,13.07,141.99,14.68,202.41,4.91,10244.59-19.39,10432.59-14.83,101.39,2.48,122.75,5.81,145.61-9.47,33.72-22.55,34.86-66.05,35.22-102.48,.62-52.44,2.48-104.9,4.6-157.34,11.35-277.76,32.23-1533.99,28.68-2369.8-1.43-337.19-31.01-590.81-70.28-653.2-10.92-41.01-13.75-61.4-56.12-73.76-154.05-44.89-357.59-54.06-518.77-53.23-26.53-95.42-61.87-188.17-105.57-277.04-5.81-11.73-22.03-4.91-22.82,6.16-3.25,46.71-20.33,85.82-80.85,273.79-542.55,15.51-9989.26,51.4-10000.23,55.19-25.76,9-29.05,35.94-31.95,59.54-28.29,233.25-31.17,2833.82-8.58,3067.69,8.34,85.08,17.38,197.94,106.45,234.1ZM221.35,685.28c3.67-31.3,3.57-47.8,24.25-49.76,3.62-.36,9992.82-52.69,9993.87-52.75,5.47-.13,10.23-3.77,11.79-9,56.07-175.05,69-203.48,78.42-247.6,36.43,79.03,66.16,160.97,88.87,244.98h0c1.02,5.47,5.93,9.33,11.49,9.05,173.7-1.19,347.1,5.95,514.52,50.28,25.08,6.67,32.89,10.24,39.58,33.4,25.71,88.87,51.01,195.94,55.65,288.73,32.9,339.34-10.17,2736.55-12.62,2899.58-.41,26.03,3.57,77.94-27.36,94.66-18.42,9.93-43.82,5.81-63.9,5.27l-153.83-3.72c-1.09,0-10396.75,15.71-10402.65,15.51-90.83-2.64-143.78-25.91-160.92-180.09-26.82-243.82-25.92-2854.85,2.69-3098.46l.15-.09Z"/></g></svg>