<?xml version="1.0" encoding="utf-8"?>
<!-- Generator: Adobe Illustrator 26.5.0, SVG Export Plug-In . SVG Version: 6.00 Build 0)  -->
<svg version="1.1" id="Layer_1" xmlns="http://www.w3.org/2000/svg" xmlns:xlink="http://www.w3.org/1999/xlink" x="0px" y="0px"
	 viewBox="0 0 11294.956 4278.473" enable-background="new 0 0 11294.956 4278.473" xml:space="preserve">
<g id="Group_22" transform="translate(26 42.918)">
	<path id="Path_21" fill="#FFFFFF" d="M270.096,3932.106c35.334,14.335,75.927,13.071,141.992,14.683
		c202.409,4.909,10244.594-19.388,10432.595-14.828c101.386,2.484,122.749,5.81,145.608-9.469
		c33.723-22.554,34.855-66.051,35.219-102.475c0.625-52.442,2.483-104.901,4.604-157.343
		c11.353-277.756,32.229-1533.99,28.683-2369.804c-1.431-337.189-31.011-590.812-70.276-653.198
		c-10.921-41.013-13.753-61.404-56.117-73.763c-154.046-44.89-357.588-54.056-518.765-53.228
		c-26.532-95.418-61.873-188.166-105.568-277.043c-5.81-11.734-22.032-4.909-22.816,6.157c-3.253,46.705-20.332,85.818-80.85,273.79
		c-542.555,15.511-9989.263,51.396-10000.228,55.188c-25.764,9.004-29.046,35.944-31.951,59.544
		c-28.293,233.245-31.171,2833.821-8.583,3067.689C171.978,3783.085,181.026,3895.944,270.096,3932.106z M195.346,642.358
		c3.674-31.298,3.572-47.796,24.253-49.756c3.617-0.363,9992.821-52.691,9993.866-52.747c5.467-0.129,10.228-3.766,11.793-9.004
		c56.074-175.047,68.999-203.483,78.425-247.604c36.432,79.026,66.158,160.972,88.866,244.976l0,0
		c1.025,5.466,5.934,9.332,11.488,9.049c173.696-1.191,347.102,5.955,514.524,50.279c25.081,6.666,32.895,10.238,39.575,33.404
		c25.706,88.867,51.005,195.945,55.652,288.733c32.9,339.343-10.166,2736.549-12.62,2899.584
		c-0.407,26.025,3.572,77.945-27.361,94.661c-18.416,9.933-43.816,5.81-63.902,5.272l-153.828-3.718
		c-1.089,0-10396.752,15.714-10402.648,15.51c-90.828-2.643-143.779-25.91-160.916-180.087
		c-26.82-243.822-25.919-2854.845,2.687-3098.463L195.346,642.358z"/>
</g>
</svg>
