<?xml version="1.0" encoding="utf-8"?>
<!-- Generator: Adobe Illustrator 26.5.0, SVG Export Plug-In . SVG Version: 6.00 Build 0)  -->
<svg version="1.1" id="Layer_1" xmlns="http://www.w3.org/2000/svg" xmlns:xlink="http://www.w3.org/1999/xlink" x="0px" y="0px"
	 viewBox="0 0 116.838 100.687" enable-background="new 0 0 116.838 100.687" xml:space="preserve">
<path id="Path_19" fill="#FFFFFF" d="M50.422,23.253c-1.799,0.666-3.446,1.687-4.844,3c-1.699,1.364-3.052,3.108-3.95,5.093
	c-1.15,2.963,0.356,5.51,1.019,5.884c0.013,0.455,0.393,0.814,0.848,0.801c0.065-0.002,0.129-0.011,0.192-0.028
	c0.776-0.207,1.553-0.4,2.333-0.577c0.446-0.127,0.708-0.588,0.588-1.036c-0.912-2.846,0.773-5.677,3.173-7.162
	c1.167-0.771,2.507-1.242,3.9-1.371c3.034-0.139,3.209,2.678,2.016,5.51c-1.727,4.1-5.656,7.65-6.821,12.48
	c-0.755,3.134,0.007,5.813,0.979,6.582c0.751,0.591,1.706,0.506,4.359,0.652c0.468-0.005,0.843-0.388,0.838-0.855
	c-0.001-0.073-0.011-0.146-0.03-0.217c0.225-0.147,0.361-0.397,0.36-0.666c0.271-7.782,4.851-10.5,6.838-15.443
	c0.688-1.701,0.878-3.562,0.548-5.367c-0.961-5.161-5.924-8.566-11.085-7.605C51.255,23.007,50.834,23.116,50.422,23.253z
	 M55.001,45.018c-0.797,2.026-1.237,4.174-1.3,6.35c-0.744-0.039-1.492-0.075-2.237-0.125c-0.638-0.043-0.741-0.1-1.036-1.307
	c-1.165-4.755,3.291-9.844,5.239-12.954c1.531-2.447,3.33-5.9,1.895-8.779c-1.6-3.213-5.969-1.984-8.38-0.584
	c-3.619,2.1-4.9,5.549-4.4,8.366c-0.31,0.075-0.62,0.15-0.93,0.228c-0.041-0.118-0.105-0.228-0.189-0.321
	c-0.869-1.17-1.032-2.72-0.427-4.046c0.717-1.548,1.772-2.915,3.088-4c2.5-2.336,5.3-3.964,8.708-3.23
	c3.134,0.618,5.561,3.106,6.1,6.254C62.163,36.267,57.273,39.308,55.001,45.018L55.001,45.018z"/>
<path id="Path_20" fill="#FFFFFF" d="M55.527,56.138c-1.556-1.275-3.764-1.378-5.432-0.253c-1.469,0.517-2.471,1.881-2.525,3.437
	c-0.057,2.076,1.774,3.754,3.679,4.2c2.076,0.578,4.269-0.406,5.218-2.34C57.323,59.481,56.939,57.417,55.527,56.138z
	 M54.348,61.302c-0.539,0.486-1.254,0.729-1.977,0.67c-2.141-0.043-3.968-2.069-2.693-3.808c0.163-0.224,0.371-0.413,0.609-0.555
	c0.213,0,0.419-0.073,0.584-0.207c0.123-0.017,0.248-0.015,0.37,0.007c0.459,0.116,0.926-0.161,1.044-0.62
	c1.373-0.238,2.68,0.682,2.918,2.055c0.01,0.057,0.018,0.114,0.024,0.171C55.28,59.869,54.96,60.704,54.348,61.302z"/>
<path id="Path_21" fill="#FFFFFF" d="M97.081,8.528c-2.433-0.987-5.228-0.9-9.777-1.011C73.367,7.179,34.823,6.238,21.88,5.925
	c-6.981-0.171-8.452-0.4-10.026,0.652c-2.322,1.553-2.4,4.548-2.425,7.056c-0.043,3.611-0.171,7.223-0.317,10.834
	c-1.108,27.111-1.25,29.814,2.864,45.311c0.752,2.824,0.947,4.228,3.864,5.079c10.607,3.091,24.622,3.722,35.72,3.665
	c1.827,6.57,4.26,12.956,7.269,19.076c0.4,0.808,1.517,0.338,1.571-0.424c0.224-3.216,1.4-5.909,5.567-18.852
	c37.358-1.068,34.9-0.926,35.652-1.19c1.774-0.62,2-2.475,2.2-4.1c1.948-16.06,2.146-32.285,0.591-48.388
	C103.837,18.789,103.214,11.018,97.081,8.528z M102.228,72.206c-0.253,2.155-0.246,3.291-1.67,3.426
	c-0.249,0.025-35.143,1.015-35.214,1.019c-0.376,0.009-0.704,0.259-0.812,0.62c-3.861,12.053-4.751,14.011-5.4,17.049
	c-2.509-5.441-4.555-11.084-6.119-16.868l0,0c-0.071-0.376-0.409-0.643-0.791-0.623c-11.96,0.082-23.9-0.41-35.428-3.462
	c-1.727-0.459-2.265-0.705-2.725-2.3c-1.77-6.119-3.512-13.492-3.832-19.881c-0.474-9.545,0.7-25.587,0.869-36.813
	c0.028-1.792-0.246-5.367,1.884-6.518c1.268-0.684,3.017-0.4,4.4-0.363l10.592,0.256c0.075,0,62.955,1.531,63.361,1.546
	c6.254,0.182,9.9,1.784,11.08,12.4c0.87,7.912,1.317,15.865,1.339,23.824c0.025,8.919-0.488,17.832-1.535,26.689L102.228,72.206z"/>
</svg>
